PathFileType	4	(X/Y/Z)	C:/Users/opensim2020/Desktop/walking_exp_matlab/subject01_walking08_straight_01.trc	
DataRate	CameraRate	NumFrames	NumMarkers	Units	OrigDataRate	OrigDataStartFrame	OrigNumFrames	
100.00	100.00	7	43	mm	100.00	824	377	
Frame#	Time	LFHD			RFHD			LBHD			RBHD			C7			T10			CLAV			STRN			RBAK			LSHO			LUPA			LELB			LFRM			LWRA			LWRB			LFIN			RSHO			RUPA			RELB			RFRM			RWRA			RWRB			RFIN			LASI			RASI			LPSI			RPSI			LTHI			LKNE			LTIB			LANK			LHEE			LTOE			RTHI			RKNE			RTIB			RANK			RHEE			RTOE			*39			*40			*41			*42			
		X1	Y1	Z1	X2	Y2	Z2	X3	Y3	Z3	X4	Y4	Z4	X5	Y5	Z5	X6	Y6	Z6	X7	Y7	Z7	X8	Y8	Z8	X9	Y9	Z9	X10	Y10	Z10	X11	Y11	Z11	X12	Y12	Z12	X13	Y13	Z13	X14	Y14	Z14	X15	Y15	Z15	X16	Y16	Z16	X17	Y17	Z17	X18	Y18	Z18	X19	Y19	Z19	X20	Y20	Z20	X21	Y21	Z21	X22	Y22	Z22	X23	Y23	Z23	X24	Y24	Z24	X25	Y25	Z25	X26	Y26	Z26	X27	Y27	Z27	X28	Y28	Z28	X29	Y29	Z29	X30	Y30	Z30	X31	Y31	Z31	X32	Y32	Z32	X33	Y33	Z33	X34	Y34	Z34	X35	Y35	Z35	X36	Y36	Z36	X37	Y37	Z37	X38	Y38	Z38	X39	Y39	Z39	X40	Y40	Z40	X41	Y41	Z41	X42	Y42	Z42	X43	Y43	Z43	

95	0.940	-1161.82642	-776.70740	1678.43372	-1048.46973	-773.50269	1690.40869	-1159.96204	-878.71960	1605.37195	-1039.71533	-878.04773	1615.64575	-1110.13074	-884.78845	1432.89197	-1080.64343	-918.42499	1141.79541	-1098.36658	-739.62756	1368.61316	-1093.10315	-695.05841	1212.73706	-1021.20679	-940.30933	1244.70154	-1263.17358	-792.01520	1386.35181	-1341.73987	-793.84784	1198.17188	-1337.65161	-782.94513	1046.76819	-1352.64819	-716.92151	951.24432	-1321.34546	-613.17932	861.95959	-1349.93164	-662.24457	841.96033	-1351.67090	-597.89722	786.91327	-950.57556	-808.03705	1401.69421	-839.95813	-865.51025	1207.56299	-833.96686	-865.65582	1081.98938	-802.51733	-838.34888	964.75006	-824.25348	-761.44885	846.53528	-783.73535	-804.16711	847.81714	-785.51184	-766.34052	770.98822	-1168.89172	-740.74365	932.68384	-952.28888	-748.07959	945.76379	-1119.31616	-929.74390	943.24988	-974.07684	-931.11456	948.67578	-1213.22302	-774.70538	601.10394	-1194.89478	-788.43982	466.48663	-1198.81897	-844.44989	282.76834	-1138.59399	-869.86804	64.87109	-1085.05725	-915.19812	36.99484	-1133.54956	-719.47125	30.91290	-864.13940	-725.78259	621.94843	-875.51611	-681.56421	468.10757	-874.74426	-773.48596	317.68759	-922.37061	-842.17871	122.28604	-981.84363	-888.78479	93.43562	-900.86652	-723.40509	45.63346	-1072.79749	-792.32678	1718.80859	-3101.99121	1973.13525	1023.31653	-3140.74609	2012.43970	1022.00592			 
96	0.950	-1162.14893	-772.05841	1678.36365	-1048.84424	-768.92047	1690.30359	-1160.38306	-874.11554	1605.34277	-1040.13525	-873.48395	1615.65271	-1110.48694	-880.41492	1432.94116	-1080.59790	-913.86627	1141.73242	-1098.73926	-735.13348	1368.47095	-1093.48914	-690.64252	1212.60315	-1021.50305	-935.76495	1244.58716	-1263.49890	-787.62408	1386.10461	-1342.01074	-789.03741	1198.00134	-1337.87854	-777.61090	1046.53894	-1352.75940	-710.52557	951.61395	-1321.48853	-605.67487	863.65588	-1349.80518	-654.55170	842.99963	-1351.59033	-589.55389	788.71875	-950.94684	-803.24158	1401.67664	-840.40192	-861.62488	1207.55652	-834.24634	-861.93732	1082.03113	-802.71838	-834.89142	964.63794	-823.97424	-758.16620	846.38666	-783.78027	-800.61218	847.73907	-785.27167	-763.33075	770.89404	-1169.21753	-736.55536	932.49774	-952.54803	-743.53033	945.70593	-1119.08521	-925.48755	943.35645	-973.93042	-926.20361	948.46198	-1213.42175	-772.06128	601.00494	-1195.14539	-786.41663	466.36685	-1198.93860	-843.34668	282.92651	-1138.65784	-869.71112	65.03958	-1085.08777	-914.92224	37.08177	-1133.48193	-719.44232	30.85048	-864.31525	-720.97119	621.92719	-875.88702	-675.25909	468.30969	-874.42725	-762.78485	315.26266	-921.20288	-825.84875	117.99300	-980.39166	-871.00360	86.77193	-899.82855	-704.70233	45.16465	-1073.17029	-787.69226	1718.77258	-3102.12451	1973.18262	1023.42871	-3140.76147	2012.44995	1021.95648			 
97	0.960	-1162.42944	-767.36523	1678.28772	-1048.99683	-764.31097	1690.32104	-1160.69983	-869.47803	1605.32922	-1040.53625	-868.93542	1615.61084	-1110.70068	-875.79303	1432.82935	-1080.43494	-909.34540	1141.69348	-1099.45642	-730.58459	1368.44727	-1093.82959	-686.09369	1212.46948	-1021.68768	-931.16217	1244.44067	-1263.74426	-783.21112	1385.79565	-1342.13855	-784.32147	1197.69580	-1337.97339	-772.25049	1046.26660	-1352.78577	-704.18024	951.96381	-1321.50769	-598.24335	865.38330	-1349.69116	-646.91138	844.05237	-1351.49707	-581.31232	790.53693	-951.06952	-799.00824	1401.49756	-840.73944	-857.72388	1207.54871	-834.46875	-858.46741	1082.01526	-802.77539	-831.41010	964.64026	-823.57312	-754.75183	846.37341	-783.72742	-797.94910	847.79022	-784.84686	-760.43579	770.82129	-1169.49170	-732.37366	932.25336	-952.75037	-738.84808	945.65887	-1118.85913	-921.18726	943.50482	-973.62408	-922.59753	949.06506	-1213.61377	-769.45935	600.54254	-1195.32849	-784.38708	466.24936	-1199.02527	-842.18359	283.09869	-1138.79651	-869.62170	65.28337	-1085.10046	-915.01447	37.56579	-1133.64856	-719.46912	30.88370	-864.52460	-716.19281	621.83594	-876.53406	-669.53607	468.53271	-874.00159	-752.33716	313.04514	-919.80487	-809.32959	113.80648	-978.76105	-854.23651	81.39023	-898.80469	-685.86493	44.74605	-1073.48743	-783.03925	1718.68701	-3101.96753	1973.20618	1023.31482	-3140.70923	2012.51038	1022.06647			 
98	0.970	-1162.67261	-762.67816	1678.16052	-1049.15088	-759.69275	1690.27551	-1161.03320	-864.80756	1605.29565	-1040.78467	-864.36426	1615.61609	-1110.85620	-871.50464	1432.82288	-1080.24915	-904.74927	1141.59033	-1099.57446	-725.96814	1368.26685	-1094.07239	-681.56439	1212.35754	-1021.73108	-926.54028	1244.30725	-1263.91296	-778.85492	1385.54517	-1342.36353	-779.42841	1197.50891	-1337.96301	-767.07184	1045.88855	-1352.74304	-697.81641	952.24353	-1321.51794	-590.80682	867.13995	-1349.37988	-639.35699	845.10693	-1351.36169	-573.17737	792.48022	-951.15369	-794.11591	1401.60059	-840.97919	-853.72656	1207.53564	-834.60797	-854.55151	1082.01599	-802.84351	-827.84314	964.57990	-823.24213	-751.41962	846.14130	-783.68518	-794.56299	847.40192	-784.41840	-757.35645	770.76721	-1169.67932	-728.19617	932.00867	-952.86810	-734.17548	945.60291	-1118.61511	-916.81421	943.60419	-973.54327	-916.97888	948.53741	-1213.91431	-766.49933	600.57123	-1195.36780	-782.34180	466.04327	-1199.15540	-841.08044	283.22116	-1138.89392	-869.53973	65.40385	-1085.13440	-914.99323	37.84565	-1133.70044	-719.43542	30.85521	-864.76471	-711.67218	621.74561	-877.12048	-664.20630	468.84360	-873.56866	-741.78833	310.91205	-918.28961	-792.95831	109.65216	-976.90186	-837.05530	75.71117	-897.90186	-666.92828	44.46966	-1073.79285	-778.36115	1718.56470	-3101.91479	1973.11340	1023.42096	-3140.62915	2012.52222	1022.04266			 
99	0.980	-1162.79395	-757.92145	1678.05420	-1049.39514	-754.90381	1690.18506	-1161.21069	-860.11926	1605.23560	-1040.91211	-859.51538	1615.54321	-1110.84290	-866.70709	1432.72668	-1079.97913	-900.17419	1141.51672	-1099.80029	-721.66809	1368.21875	-1094.29016	-676.95880	1212.18323	-1021.67010	-921.80719	1244.15430	-1263.97034	-774.45288	1385.31934	-1342.22314	-774.83313	1197.17920	-1337.84583	-761.77637	1045.52637	-1352.57520	-691.56091	952.70331	-1321.45740	-583.45276	868.89056	-1348.99646	-631.83185	846.17102	-1350.95496	-565.21722	794.10333	-951.27649	-789.43921	1401.47742	-841.12506	-849.64667	1207.56750	-834.69855	-850.60693	1082.06091	-802.80011	-824.19653	964.62299	-822.74316	-747.94440	846.00281	-783.40051	-791.31378	847.36731	-783.96777	-754.10535	770.64648	-1169.81018	-723.92944	931.72174	-953.02740	-729.53320	945.41766	-1118.37463	-912.43579	943.73248	-973.13043	-912.94470	949.15851	-1213.86621	-763.75623	600.16364	-1195.42456	-780.37274	465.84955	-1199.14758	-840.04602	283.34653	-1138.96521	-869.39215	65.64228	-1085.13684	-914.93829	38.13672	-1133.73157	-719.43768	30.85040	-864.94580	-707.33624	621.55396	-877.67023	-658.34985	468.90680	-872.92072	-731.90759	309.08881	-916.74438	-776.04730	105.76417	-974.87073	-820.07837	70.70374	-896.90393	-648.14648	44.41326	-1073.95081	-773.69360	1718.42908	-3101.96484	1973.18896	1023.63776	-3140.76953	2012.50330	1021.98132			 
100	0.990	-1162.91284	-753.18024	1677.90637	-1049.44055	-750.07977	1690.00989	-1161.25574	-855.40509	1605.18542	-1041.03223	-854.99811	1615.59302	-1110.72351	-862.29498	1432.66431	-1079.67334	-895.59570	1141.42798	-1099.28943	-716.92584	1367.78796	-1094.39758	-672.39642	1212.03137	-1021.44812	-917.10107	1244.03711	-1263.98389	-770.10785	1385.07202	-1342.19727	-770.11401	1197.03003	-1337.61035	-756.40228	1045.42847	-1352.22607	-685.31165	953.03101	-1321.27002	-576.15387	870.67596	-1348.42053	-624.44946	847.23560	-1350.73706	-557.18872	796.11432	-951.25104	-785.04913	1401.52039	-841.16486	-845.41492	1207.59631	-834.73474	-846.21362	1082.20313	-802.60071	-820.50519	964.62689	-822.22839	-744.31232	845.88318	-783.21136	-788.26593	847.33606	-783.41699	-750.84644	770.56372	-1169.85559	-719.60016	931.43707	-953.06738	-724.83582	945.29010	-1118.09851	-908.06219	943.86322	-972.97192	-908.27527	949.28937	-1213.85205	-760.96613	599.87976	-1195.45007	-778.34564	465.69464	-1199.13159	-838.98468	283.45148	-1139.01697	-869.30804	65.83780	-1085.09729	-914.98267	38.53124	-1133.74170	-719.44019	30.78199	-865.14960	-703.41003	621.42023	-878.42664	-653.24048	469.03690	-872.45233	-721.85590	307.24225	-914.88055	-759.24384	102.12591	-972.74170	-802.40002	65.63471	-895.83789	-629.35333	44.39429	-1074.03528	-768.68945	1718.28809	-3101.80396	1973.11548	1023.74567	-3140.63232	2012.54248	1021.98376			 
101	1.000	-1162.86133	-748.35388	1677.71277	-1049.45093	-745.44647	1689.83179	-1161.28149	-850.66492	1605.08154	-1041.02673	-850.30286	1615.50073	-1110.56018	-857.33319	1432.36548	-1079.39087	-890.97278	1141.29163	-1099.18506	-712.22498	1367.64856	-1094.42590	-667.80096	1211.84058	-1021.07831	-912.39746	1243.93347	-1263.86670	-765.74628	1384.91577	-1341.71936	-765.66608	1196.69446	-1337.36377	-751.16058	1045.15930	-1351.82202	-679.09174	953.45563	-1320.89709	-568.92413	872.44116	-1347.84424	-617.07159	848.34576	-1350.29468	-549.24200	798.05334	-951.10913	-779.78186	1401.30750	-841.09521	-841.12988	1207.58813	-834.65436	-842.33612	1082.09509	-802.49353	-816.78339	964.58087	-821.72516	-740.68622	845.72943	-782.76801	-784.41602	847.35547	-782.86597	-747.52075	770.38666	-1169.82935	-715.27563	931.14197	-953.05261	-720.05707	945.12671	-1117.79028	-903.66199	943.96844	-972.86011	-902.95551	949.06329	-1213.82861	-758.13452	599.64252	-1195.40881	-776.38367	465.46152	-1199.02759	-837.95581	283.62735	-1138.99060	-869.17981	65.99218	-1085.07471	-914.87701	38.75252	-1133.84753	-719.55219	30.60924	-865.29144	-698.88293	621.02435	-879.06158	-647.83197	468.90588	-871.95392	-711.90027	305.41656	-913.07501	-742.95575	98.84969	-970.10565	-785.08386	61.33455	-894.80719	-610.65906	44.70750	-1073.99988	-764.00690	1718.23267	-3102.11890	1973.05981	1023.67078	-3140.64551	2012.51392	1022.07208			 
